<mxfile host="app.diagrams.net" agent="Mozilla/5.0 (Windows NT 10.0; Win64; x64) AppleWebKit/537.36 (KHTML, like Gecko) Chrome/132.0.0.0 Safari/537.36" version="26.0.6">
  <diagram name="Page-1" id="74e2e168-ea6b-b213-b513-2b3c1d86103e">
    <mxGraphModel dx="1050" dy="541" grid="1" gridSize="10" guides="1" tooltips="1" connect="1" arrows="1" fold="1" page="1" pageScale="1" pageWidth="1100" pageHeight="850" background="none" math="0" shadow="0">
      <root>
        <mxCell id="0" />
        <mxCell id="1" parent="0" />
        <mxCell id="77e6c97f196da883-1" value="&lt;font style=&quot;font-size: 12px;&quot;&gt;WMS自动补料流程&lt;/font&gt;" style="swimlane;html=1;childLayout=stackLayout;startSize=20;rounded=0;shadow=0;labelBackgroundColor=none;strokeWidth=1;fontFamily=Verdana;fontSize=8;align=center;" parent="1" vertex="1">
          <mxGeometry x="70" y="40" width="960" height="3380" as="geometry" />
        </mxCell>
        <mxCell id="77e6c97f196da883-2" value="人工" style="swimlane;html=1;startSize=20;" parent="77e6c97f196da883-1" vertex="1">
          <mxGeometry y="20" width="160" height="3360" as="geometry" />
        </mxCell>
        <mxCell id="77e6c97f196da883-3" value="看板系统(MES)" style="swimlane;html=1;startSize=20;" parent="77e6c97f196da883-1" vertex="1">
          <mxGeometry x="160" y="20" width="160" height="3360" as="geometry" />
        </mxCell>
        <mxCell id="77e6c97f196da883-11" value="&lt;font style=&quot;font-size: 10px;&quot;&gt;创建生产计划时，下推到WMS系统&lt;/font&gt;" style="rounded=1;whiteSpace=wrap;html=1;shadow=0;labelBackgroundColor=none;strokeWidth=1;fontFamily=Verdana;fontSize=8;align=center;" parent="77e6c97f196da883-3" vertex="1">
          <mxGeometry x="30" y="63" width="100" height="60" as="geometry" />
        </mxCell>
        <mxCell id="nlr6UDlaJSdSzfd9d1N8-15" value="&lt;span style=&quot;font-size: 10px;&quot;&gt;WMS看板输出报警&lt;/span&gt;" style="rounded=1;whiteSpace=wrap;html=1;shadow=0;labelBackgroundColor=none;strokeWidth=1;fontFamily=Verdana;fontSize=8;align=center;" vertex="1" parent="77e6c97f196da883-3">
          <mxGeometry x="30" y="520" width="100" height="60" as="geometry" />
        </mxCell>
        <mxCell id="77e6c97f196da883-4" value="WMS" style="swimlane;html=1;startSize=20;" parent="77e6c97f196da883-1" vertex="1">
          <mxGeometry x="320" y="20" width="160" height="3360" as="geometry" />
        </mxCell>
        <mxCell id="77e6c97f196da883-12" value="&lt;font style=&quot;font-size: 10px;&quot;&gt;同步生产计划，并创建出库单为待出库状态&lt;/font&gt;" style="rounded=1;whiteSpace=wrap;html=1;shadow=0;labelBackgroundColor=none;strokeWidth=1;fontFamily=Verdana;fontSize=8;align=center;" parent="77e6c97f196da883-4" vertex="1">
          <mxGeometry x="31" y="63" width="100" height="60" as="geometry" />
        </mxCell>
        <mxCell id="nlr6UDlaJSdSzfd9d1N8-1" value="&lt;font style=&quot;font-size: 10px;&quot;&gt;设置线边仓每种物料的库存预警值&lt;/font&gt;" style="rounded=1;whiteSpace=wrap;html=1;shadow=0;labelBackgroundColor=none;strokeWidth=1;fontFamily=Verdana;fontSize=8;align=center;" vertex="1" parent="77e6c97f196da883-4">
          <mxGeometry x="31" y="150" width="100" height="60" as="geometry" />
        </mxCell>
        <mxCell id="nlr6UDlaJSdSzfd9d1N8-3" value="&lt;font style=&quot;font-size: 10px;&quot;&gt;系统实时监控线边仓库存值&lt;/font&gt;" style="rounded=1;whiteSpace=wrap;html=1;shadow=0;labelBackgroundColor=none;strokeWidth=1;fontFamily=Verdana;fontSize=8;align=center;" vertex="1" parent="77e6c97f196da883-4">
          <mxGeometry x="31" y="240" width="100" height="60" as="geometry" />
        </mxCell>
        <mxCell id="nlr6UDlaJSdSzfd9d1N8-4" value="" style="endArrow=classic;html=1;rounded=0;exitX=0.5;exitY=1;exitDx=0;exitDy=0;entryX=0.5;entryY=0;entryDx=0;entryDy=0;" edge="1" parent="77e6c97f196da883-4" source="nlr6UDlaJSdSzfd9d1N8-1" target="nlr6UDlaJSdSzfd9d1N8-3">
          <mxGeometry width="50" height="50" relative="1" as="geometry">
            <mxPoint x="260" y="200" as="sourcePoint" />
            <mxPoint x="310" y="150" as="targetPoint" />
          </mxGeometry>
        </mxCell>
        <mxCell id="nlr6UDlaJSdSzfd9d1N8-5" value="&lt;font style=&quot;font-size: 10px;&quot;&gt;是否触发预警值&lt;/font&gt;" style="rhombus;whiteSpace=wrap;html=1;rounded=0;shadow=0;labelBackgroundColor=none;strokeWidth=1;fontFamily=Verdana;fontSize=8;align=center;" vertex="1" parent="77e6c97f196da883-4">
          <mxGeometry x="41" y="330" width="80" height="60" as="geometry" />
        </mxCell>
        <mxCell id="nlr6UDlaJSdSzfd9d1N8-6" value="" style="endArrow=classic;html=1;rounded=0;exitX=1;exitY=0.5;exitDx=0;exitDy=0;entryX=1;entryY=0.5;entryDx=0;entryDy=0;" edge="1" parent="77e6c97f196da883-4" source="nlr6UDlaJSdSzfd9d1N8-5" target="nlr6UDlaJSdSzfd9d1N8-3">
          <mxGeometry width="50" height="50" relative="1" as="geometry">
            <mxPoint x="180" y="360" as="sourcePoint" />
            <mxPoint x="230" y="310" as="targetPoint" />
            <Array as="points">
              <mxPoint x="150" y="360" />
              <mxPoint x="150" y="270" />
            </Array>
          </mxGeometry>
        </mxCell>
        <mxCell id="nlr6UDlaJSdSzfd9d1N8-7" value="否" style="edgeLabel;html=1;align=center;verticalAlign=middle;resizable=0;points=[];" vertex="1" connectable="0" parent="nlr6UDlaJSdSzfd9d1N8-6">
          <mxGeometry x="-0.2" y="3" relative="1" as="geometry">
            <mxPoint as="offset" />
          </mxGeometry>
        </mxCell>
        <mxCell id="nlr6UDlaJSdSzfd9d1N8-8" value="&lt;span style=&quot;font-size: 10px;&quot;&gt;找到对应物料的出库单，并查询库位的库存数量&lt;/span&gt;" style="rounded=1;whiteSpace=wrap;html=1;shadow=0;labelBackgroundColor=none;strokeWidth=1;fontFamily=Verdana;fontSize=8;align=center;" vertex="1" parent="77e6c97f196da883-4">
          <mxGeometry x="30" y="430" width="100" height="60" as="geometry" />
        </mxCell>
        <mxCell id="nlr6UDlaJSdSzfd9d1N8-9" value="" style="endArrow=classic;html=1;rounded=0;exitX=0.5;exitY=1;exitDx=0;exitDy=0;" edge="1" parent="77e6c97f196da883-4" source="nlr6UDlaJSdSzfd9d1N8-5" target="nlr6UDlaJSdSzfd9d1N8-8">
          <mxGeometry width="50" height="50" relative="1" as="geometry">
            <mxPoint x="240" y="390" as="sourcePoint" />
            <mxPoint x="290" y="340" as="targetPoint" />
          </mxGeometry>
        </mxCell>
        <mxCell id="nlr6UDlaJSdSzfd9d1N8-10" value="是" style="edgeLabel;html=1;align=center;verticalAlign=middle;resizable=0;points=[];" vertex="1" connectable="0" parent="nlr6UDlaJSdSzfd9d1N8-9">
          <mxGeometry x="-0.18" y="3" relative="1" as="geometry">
            <mxPoint as="offset" />
          </mxGeometry>
        </mxCell>
        <mxCell id="nlr6UDlaJSdSzfd9d1N8-11" value="" style="endArrow=classic;html=1;rounded=0;exitX=0.5;exitY=1;exitDx=0;exitDy=0;entryX=0.5;entryY=0;entryDx=0;entryDy=0;" edge="1" parent="77e6c97f196da883-4" source="nlr6UDlaJSdSzfd9d1N8-3" target="nlr6UDlaJSdSzfd9d1N8-5">
          <mxGeometry width="50" height="50" relative="1" as="geometry">
            <mxPoint x="190" y="310" as="sourcePoint" />
            <mxPoint x="240" y="260" as="targetPoint" />
          </mxGeometry>
        </mxCell>
        <mxCell id="nlr6UDlaJSdSzfd9d1N8-13" value="&lt;font style=&quot;font-size: 10px;&quot;&gt;库存是否足够&lt;/font&gt;" style="rhombus;whiteSpace=wrap;html=1;rounded=0;shadow=0;labelBackgroundColor=none;strokeWidth=1;fontFamily=Verdana;fontSize=8;align=center;" vertex="1" parent="77e6c97f196da883-4">
          <mxGeometry x="40" y="520" width="80" height="60" as="geometry" />
        </mxCell>
        <mxCell id="nlr6UDlaJSdSzfd9d1N8-14" value="" style="endArrow=classic;html=1;rounded=0;exitX=0.5;exitY=1;exitDx=0;exitDy=0;entryX=0.5;entryY=0;entryDx=0;entryDy=0;" edge="1" parent="77e6c97f196da883-4" source="nlr6UDlaJSdSzfd9d1N8-8" target="nlr6UDlaJSdSzfd9d1N8-13">
          <mxGeometry width="50" height="50" relative="1" as="geometry">
            <mxPoint x="210" y="490" as="sourcePoint" />
            <mxPoint x="260" y="440" as="targetPoint" />
          </mxGeometry>
        </mxCell>
        <mxCell id="nlr6UDlaJSdSzfd9d1N8-18" value="&lt;span style=&quot;font-size: 10px;&quot;&gt;查找货架接驳区是否有空货架&lt;/span&gt;" style="rounded=1;whiteSpace=wrap;html=1;shadow=0;labelBackgroundColor=none;strokeWidth=1;fontFamily=Verdana;fontSize=8;align=center;" vertex="1" parent="77e6c97f196da883-4">
          <mxGeometry x="30" y="620" width="100" height="60" as="geometry" />
        </mxCell>
        <mxCell id="nlr6UDlaJSdSzfd9d1N8-19" value="" style="endArrow=classic;html=1;rounded=0;exitX=0.5;exitY=1;exitDx=0;exitDy=0;entryX=0.5;entryY=0;entryDx=0;entryDy=0;" edge="1" parent="77e6c97f196da883-4" source="nlr6UDlaJSdSzfd9d1N8-13" target="nlr6UDlaJSdSzfd9d1N8-18">
          <mxGeometry width="50" height="50" relative="1" as="geometry">
            <mxPoint x="210" y="590" as="sourcePoint" />
            <mxPoint x="260" y="540" as="targetPoint" />
          </mxGeometry>
        </mxCell>
        <mxCell id="nlr6UDlaJSdSzfd9d1N8-20" value="足够" style="edgeLabel;html=1;align=center;verticalAlign=middle;resizable=0;points=[];" vertex="1" connectable="0" parent="nlr6UDlaJSdSzfd9d1N8-19">
          <mxGeometry x="-0.13" y="-1" relative="1" as="geometry">
            <mxPoint as="offset" />
          </mxGeometry>
        </mxCell>
        <mxCell id="nlr6UDlaJSdSzfd9d1N8-21" value="&lt;font style=&quot;font-size: 10px;&quot;&gt;是否有空货架&lt;/font&gt;" style="rhombus;whiteSpace=wrap;html=1;rounded=0;shadow=0;labelBackgroundColor=none;strokeWidth=1;fontFamily=Verdana;fontSize=8;align=center;" vertex="1" parent="77e6c97f196da883-4">
          <mxGeometry x="40" y="720" width="80" height="60" as="geometry" />
        </mxCell>
        <mxCell id="nlr6UDlaJSdSzfd9d1N8-24" value="" style="endArrow=classic;html=1;rounded=0;exitX=0.5;exitY=1;exitDx=0;exitDy=0;" edge="1" parent="77e6c97f196da883-4" source="nlr6UDlaJSdSzfd9d1N8-18" target="nlr6UDlaJSdSzfd9d1N8-21">
          <mxGeometry width="50" height="50" relative="1" as="geometry">
            <mxPoint x="220" y="700" as="sourcePoint" />
            <mxPoint x="270" y="650" as="targetPoint" />
          </mxGeometry>
        </mxCell>
        <mxCell id="nlr6UDlaJSdSzfd9d1N8-25" value="&lt;span style=&quot;font-size: 10px;&quot;&gt;分配货架区取货起点，分配空货架放货终点，至出库单为待执行状态(单条数据或多条数据合并为一个出库单)&lt;/span&gt;" style="rounded=1;whiteSpace=wrap;html=1;shadow=0;labelBackgroundColor=none;strokeWidth=1;fontFamily=Verdana;fontSize=8;align=center;" vertex="1" parent="77e6c97f196da883-4">
          <mxGeometry x="30" y="820" width="100" height="90" as="geometry" />
        </mxCell>
        <mxCell id="nlr6UDlaJSdSzfd9d1N8-26" value="" style="endArrow=classic;html=1;rounded=0;exitX=0.5;exitY=1;exitDx=0;exitDy=0;entryX=0.5;entryY=0;entryDx=0;entryDy=0;" edge="1" parent="77e6c97f196da883-4" source="nlr6UDlaJSdSzfd9d1N8-21" target="nlr6UDlaJSdSzfd9d1N8-25">
          <mxGeometry width="50" height="50" relative="1" as="geometry">
            <mxPoint x="210" y="770" as="sourcePoint" />
            <mxPoint x="260" y="720" as="targetPoint" />
          </mxGeometry>
        </mxCell>
        <mxCell id="nlr6UDlaJSdSzfd9d1N8-27" value="有" style="edgeLabel;html=1;align=center;verticalAlign=middle;resizable=0;points=[];" vertex="1" connectable="0" parent="nlr6UDlaJSdSzfd9d1N8-26">
          <mxGeometry x="-0.13" y="1" relative="1" as="geometry">
            <mxPoint as="offset" />
          </mxGeometry>
        </mxCell>
        <mxCell id="nlr6UDlaJSdSzfd9d1N8-31" value="&lt;span style=&quot;font-size: 10px;&quot;&gt;出库任务下发至RCS系统&lt;/span&gt;" style="rounded=1;whiteSpace=wrap;html=1;shadow=0;labelBackgroundColor=none;strokeWidth=1;fontFamily=Verdana;fontSize=8;align=center;" vertex="1" parent="77e6c97f196da883-4">
          <mxGeometry x="30" y="940" width="100" height="90" as="geometry" />
        </mxCell>
        <mxCell id="nlr6UDlaJSdSzfd9d1N8-30" value="" style="endArrow=classic;html=1;rounded=0;exitX=0.5;exitY=1;exitDx=0;exitDy=0;entryX=0.5;entryY=0;entryDx=0;entryDy=0;" edge="1" parent="77e6c97f196da883-4" source="nlr6UDlaJSdSzfd9d1N8-25" target="nlr6UDlaJSdSzfd9d1N8-31">
          <mxGeometry width="50" height="50" relative="1" as="geometry">
            <mxPoint x="190" y="970" as="sourcePoint" />
            <mxPoint x="240" y="920" as="targetPoint" />
          </mxGeometry>
        </mxCell>
        <mxCell id="nlr6UDlaJSdSzfd9d1N8-39" value="&lt;span style=&quot;font-size: 10px;&quot;&gt;接收取货完成信息，找到相应的库位并减少库存&lt;/span&gt;" style="rounded=1;whiteSpace=wrap;html=1;shadow=0;labelBackgroundColor=none;strokeWidth=1;fontFamily=Verdana;fontSize=8;align=center;" vertex="1" parent="77e6c97f196da883-4">
          <mxGeometry x="30" y="1060" width="100" height="90" as="geometry" />
        </mxCell>
        <mxCell id="nlr6UDlaJSdSzfd9d1N8-55" value="&lt;span style=&quot;font-size: 10px;&quot;&gt;接收放货完成信息，找到相应的货架库位并增加库存&lt;/span&gt;" style="rounded=1;whiteSpace=wrap;html=1;shadow=0;labelBackgroundColor=none;strokeWidth=1;fontFamily=Verdana;fontSize=8;align=center;" vertex="1" parent="77e6c97f196da883-4">
          <mxGeometry x="30" y="1650" width="100" height="90" as="geometry" />
        </mxCell>
        <mxCell id="nlr6UDlaJSdSzfd9d1N8-60" value="&lt;span style=&quot;font-size: 10px;&quot;&gt;系统实时监测货架料箱数量状态&lt;/span&gt;" style="rounded=1;whiteSpace=wrap;html=1;shadow=0;labelBackgroundColor=none;strokeWidth=1;fontFamily=Verdana;fontSize=8;align=center;" vertex="1" parent="77e6c97f196da883-4">
          <mxGeometry x="30" y="1770" width="100" height="90" as="geometry" />
        </mxCell>
        <mxCell id="nlr6UDlaJSdSzfd9d1N8-61" value="" style="endArrow=classic;html=1;rounded=0;exitX=0.5;exitY=1;exitDx=0;exitDy=0;entryX=0.5;entryY=0;entryDx=0;entryDy=0;" edge="1" parent="77e6c97f196da883-4" source="nlr6UDlaJSdSzfd9d1N8-55" target="nlr6UDlaJSdSzfd9d1N8-60">
          <mxGeometry width="50" height="50" relative="1" as="geometry">
            <mxPoint x="210" y="1800" as="sourcePoint" />
            <mxPoint x="260" y="1750" as="targetPoint" />
          </mxGeometry>
        </mxCell>
        <mxCell id="nlr6UDlaJSdSzfd9d1N8-62" value="&lt;font style=&quot;font-size: 10px;&quot;&gt;料箱是否放满&lt;/font&gt;" style="rhombus;whiteSpace=wrap;html=1;rounded=0;shadow=0;labelBackgroundColor=none;strokeWidth=1;fontFamily=Verdana;fontSize=8;align=center;" vertex="1" parent="77e6c97f196da883-4">
          <mxGeometry x="40" y="1900" width="80" height="60" as="geometry" />
        </mxCell>
        <mxCell id="nlr6UDlaJSdSzfd9d1N8-63" value="" style="endArrow=classic;html=1;rounded=0;exitX=0.5;exitY=1;exitDx=0;exitDy=0;entryX=0.5;entryY=0;entryDx=0;entryDy=0;" edge="1" parent="77e6c97f196da883-4" source="nlr6UDlaJSdSzfd9d1N8-60" target="nlr6UDlaJSdSzfd9d1N8-62">
          <mxGeometry width="50" height="50" relative="1" as="geometry">
            <mxPoint x="200" y="1890" as="sourcePoint" />
            <mxPoint x="250" y="1840" as="targetPoint" />
          </mxGeometry>
        </mxCell>
        <mxCell id="nlr6UDlaJSdSzfd9d1N8-64" value="" style="endArrow=classic;html=1;rounded=0;exitX=1;exitY=0.5;exitDx=0;exitDy=0;entryX=1;entryY=0.5;entryDx=0;entryDy=0;" edge="1" parent="77e6c97f196da883-4" source="nlr6UDlaJSdSzfd9d1N8-62" target="nlr6UDlaJSdSzfd9d1N8-60">
          <mxGeometry width="50" height="50" relative="1" as="geometry">
            <mxPoint x="200" y="1920" as="sourcePoint" />
            <mxPoint x="250" y="1870" as="targetPoint" />
            <Array as="points">
              <mxPoint x="150" y="1930" />
              <mxPoint x="150" y="1815" />
            </Array>
          </mxGeometry>
        </mxCell>
        <mxCell id="nlr6UDlaJSdSzfd9d1N8-65" value="否" style="edgeLabel;html=1;align=center;verticalAlign=middle;resizable=0;points=[];" vertex="1" connectable="0" parent="nlr6UDlaJSdSzfd9d1N8-64">
          <mxGeometry x="-0.137" y="2" relative="1" as="geometry">
            <mxPoint as="offset" />
          </mxGeometry>
        </mxCell>
        <mxCell id="nlr6UDlaJSdSzfd9d1N8-66" value="&lt;span style=&quot;font-size: 10px;&quot;&gt;根据出库单下发起点和终点至RCS系统&lt;/span&gt;" style="rounded=1;whiteSpace=wrap;html=1;shadow=0;labelBackgroundColor=none;strokeWidth=1;fontFamily=Verdana;fontSize=8;align=center;" vertex="1" parent="77e6c97f196da883-4">
          <mxGeometry x="30" y="2000" width="100" height="90" as="geometry" />
        </mxCell>
        <mxCell id="nlr6UDlaJSdSzfd9d1N8-67" value="" style="endArrow=classic;html=1;rounded=0;exitX=0.5;exitY=1;exitDx=0;exitDy=0;" edge="1" parent="77e6c97f196da883-4" source="nlr6UDlaJSdSzfd9d1N8-62" target="nlr6UDlaJSdSzfd9d1N8-66">
          <mxGeometry width="50" height="50" relative="1" as="geometry">
            <mxPoint x="200" y="1960" as="sourcePoint" />
            <mxPoint x="250" y="1910" as="targetPoint" />
          </mxGeometry>
        </mxCell>
        <mxCell id="nlr6UDlaJSdSzfd9d1N8-68" value="是" style="edgeLabel;html=1;align=center;verticalAlign=middle;resizable=0;points=[];" vertex="1" connectable="0" parent="nlr6UDlaJSdSzfd9d1N8-67">
          <mxGeometry x="-0.01" relative="1" as="geometry">
            <mxPoint as="offset" />
          </mxGeometry>
        </mxCell>
        <mxCell id="nlr6UDlaJSdSzfd9d1N8-79" value="&lt;span style=&quot;font-size: 10px;&quot;&gt;接收放货完成信息，更新相应线边库位物料信息并增加库存&lt;/span&gt;" style="rounded=1;whiteSpace=wrap;html=1;shadow=0;labelBackgroundColor=none;strokeWidth=1;fontFamily=Verdana;fontSize=8;align=center;" vertex="1" parent="77e6c97f196da883-4">
          <mxGeometry x="30" y="2130" width="100" height="90" as="geometry" />
        </mxCell>
        <mxCell id="nlr6UDlaJSdSzfd9d1N8-92" value="&lt;span style=&quot;font-size: 10px;&quot;&gt;接收放货完成信息，更新货架接驳区空货架状态&lt;/span&gt;" style="rounded=1;whiteSpace=wrap;html=1;shadow=0;labelBackgroundColor=none;strokeWidth=1;fontFamily=Verdana;fontSize=8;align=center;" vertex="1" parent="77e6c97f196da883-4">
          <mxGeometry x="30" y="2500" width="100" height="90" as="geometry" />
        </mxCell>
        <mxCell id="nlr6UDlaJSdSzfd9d1N8-94" value="&lt;span style=&quot;font-size: 10px;&quot;&gt;下发空料箱回库任务至RCS系统(一次搬运多个空料箱)&lt;/span&gt;" style="rounded=1;whiteSpace=wrap;html=1;shadow=0;labelBackgroundColor=none;strokeWidth=1;fontFamily=Verdana;fontSize=8;align=center;" vertex="1" parent="77e6c97f196da883-4">
          <mxGeometry x="30" y="2630" width="100" height="90" as="geometry" />
        </mxCell>
        <mxCell id="nlr6UDlaJSdSzfd9d1N8-95" value="" style="endArrow=classic;html=1;rounded=0;exitX=0.5;exitY=1;exitDx=0;exitDy=0;" edge="1" parent="77e6c97f196da883-4" source="nlr6UDlaJSdSzfd9d1N8-92" target="nlr6UDlaJSdSzfd9d1N8-94">
          <mxGeometry width="50" height="50" relative="1" as="geometry">
            <mxPoint x="210" y="2640" as="sourcePoint" />
            <mxPoint x="260" y="2590" as="targetPoint" />
          </mxGeometry>
        </mxCell>
        <mxCell id="nlr6UDlaJSdSzfd9d1N8-110" value="&lt;span style=&quot;font-size: 10px;&quot;&gt;接收货架的空料箱完成信息，并且更新货架空料箱数量&lt;/span&gt;" style="rounded=1;whiteSpace=wrap;html=1;shadow=0;labelBackgroundColor=none;strokeWidth=1;fontFamily=Verdana;fontSize=8;align=center;" vertex="1" parent="77e6c97f196da883-4">
          <mxGeometry x="30" y="2950" width="100" height="90" as="geometry" />
        </mxCell>
        <mxCell id="77e6c97f196da883-5" value="RCS" style="swimlane;html=1;startSize=20;" parent="77e6c97f196da883-1" vertex="1">
          <mxGeometry x="480" y="20" width="160" height="3360" as="geometry" />
        </mxCell>
        <mxCell id="nlr6UDlaJSdSzfd9d1N8-28" value="&lt;span style=&quot;font-size: 10px;&quot;&gt;收到任务调度，分配AGV执行出库任务&lt;/span&gt;" style="rounded=1;whiteSpace=wrap;html=1;shadow=0;labelBackgroundColor=none;strokeWidth=1;fontFamily=Verdana;fontSize=8;align=center;" vertex="1" parent="77e6c97f196da883-5">
          <mxGeometry x="30" y="940" width="100" height="90" as="geometry" />
        </mxCell>
        <mxCell id="nlr6UDlaJSdSzfd9d1N8-37" value="&lt;span style=&quot;font-size: 10px;&quot;&gt;上报取货完成信息&lt;/span&gt;" style="rounded=1;whiteSpace=wrap;html=1;shadow=0;labelBackgroundColor=none;strokeWidth=1;fontFamily=Verdana;fontSize=8;align=center;" vertex="1" parent="77e6c97f196da883-5">
          <mxGeometry x="30" y="1060" width="100" height="90" as="geometry" />
        </mxCell>
        <mxCell id="nlr6UDlaJSdSzfd9d1N8-54" value="&lt;span style=&quot;font-size: 10px;&quot;&gt;上报放货完成信息&lt;/span&gt;" style="rounded=1;whiteSpace=wrap;html=1;shadow=0;labelBackgroundColor=none;strokeWidth=1;fontFamily=Verdana;fontSize=8;align=center;" vertex="1" parent="77e6c97f196da883-5">
          <mxGeometry x="30" y="1650" width="100" height="90" as="geometry" />
        </mxCell>
        <mxCell id="nlr6UDlaJSdSzfd9d1N8-69" value="&lt;span style=&quot;font-size: 10px;&quot;&gt;收到任务调度，分配AGV执行出库任务&lt;/span&gt;" style="rounded=1;whiteSpace=wrap;html=1;shadow=0;labelBackgroundColor=none;strokeWidth=1;fontFamily=Verdana;fontSize=8;align=center;" vertex="1" parent="77e6c97f196da883-5">
          <mxGeometry x="20" y="2000" width="100" height="90" as="geometry" />
        </mxCell>
        <mxCell id="nlr6UDlaJSdSzfd9d1N8-77" value="&lt;span style=&quot;font-size: 10px;&quot;&gt;上报货架放置完成信息&lt;/span&gt;" style="rounded=1;whiteSpace=wrap;html=1;shadow=0;labelBackgroundColor=none;strokeWidth=1;fontFamily=Verdana;fontSize=8;align=center;" vertex="1" parent="77e6c97f196da883-5">
          <mxGeometry x="20" y="2130" width="100" height="90" as="geometry" />
        </mxCell>
        <mxCell id="nlr6UDlaJSdSzfd9d1N8-81" value="&lt;span style=&quot;font-size: 10px;&quot;&gt;线边是否有空货架，分配AGV执行搬运任务&lt;/span&gt;" style="rounded=1;whiteSpace=wrap;html=1;shadow=0;labelBackgroundColor=none;strokeWidth=1;fontFamily=Verdana;fontSize=8;align=center;" vertex="1" parent="77e6c97f196da883-5">
          <mxGeometry x="20" y="2260" width="100" height="90" as="geometry" />
        </mxCell>
        <mxCell id="nlr6UDlaJSdSzfd9d1N8-82" value="" style="endArrow=classic;html=1;rounded=0;exitX=0.5;exitY=1;exitDx=0;exitDy=0;" edge="1" parent="77e6c97f196da883-5" source="nlr6UDlaJSdSzfd9d1N8-77" target="nlr6UDlaJSdSzfd9d1N8-81">
          <mxGeometry width="50" height="50" relative="1" as="geometry">
            <mxPoint x="220" y="2280" as="sourcePoint" />
            <mxPoint x="270" y="2230" as="targetPoint" />
          </mxGeometry>
        </mxCell>
        <mxCell id="nlr6UDlaJSdSzfd9d1N8-83" value="&lt;font style=&quot;font-size: 10px;&quot;&gt;是否有空货架&lt;/font&gt;" style="rhombus;whiteSpace=wrap;html=1;rounded=0;shadow=0;labelBackgroundColor=none;strokeWidth=1;fontFamily=Verdana;fontSize=8;align=center;" vertex="1" parent="77e6c97f196da883-5">
          <mxGeometry x="30" y="2390" width="80" height="60" as="geometry" />
        </mxCell>
        <mxCell id="nlr6UDlaJSdSzfd9d1N8-84" value="" style="endArrow=classic;html=1;rounded=0;exitX=0.5;exitY=1;exitDx=0;exitDy=0;" edge="1" parent="77e6c97f196da883-5" source="nlr6UDlaJSdSzfd9d1N8-81" target="nlr6UDlaJSdSzfd9d1N8-83">
          <mxGeometry width="50" height="50" relative="1" as="geometry">
            <mxPoint x="180" y="2390" as="sourcePoint" />
            <mxPoint x="230" y="2340" as="targetPoint" />
          </mxGeometry>
        </mxCell>
        <mxCell id="nlr6UDlaJSdSzfd9d1N8-90" value="&lt;span style=&quot;font-size: 10px;&quot;&gt;上报货架放置完成信息&lt;/span&gt;" style="rounded=1;whiteSpace=wrap;html=1;shadow=0;labelBackgroundColor=none;strokeWidth=1;fontFamily=Verdana;fontSize=8;align=center;" vertex="1" parent="77e6c97f196da883-5">
          <mxGeometry x="20" y="2500" width="100" height="90" as="geometry" />
        </mxCell>
        <mxCell id="nlr6UDlaJSdSzfd9d1N8-96" value="&lt;span style=&quot;font-size: 10px;&quot;&gt;收到任务调度，分配AGV执行空料想回库任务&lt;/span&gt;" style="rounded=1;whiteSpace=wrap;html=1;shadow=0;labelBackgroundColor=none;strokeWidth=1;fontFamily=Verdana;fontSize=8;align=center;" vertex="1" parent="77e6c97f196da883-5">
          <mxGeometry x="20" y="2630" width="100" height="90" as="geometry" />
        </mxCell>
        <mxCell id="nlr6UDlaJSdSzfd9d1N8-108" value="&lt;span style=&quot;font-size: 10px;&quot;&gt;上报取空料箱完成信息&lt;/span&gt;" style="rounded=1;whiteSpace=wrap;html=1;shadow=0;labelBackgroundColor=none;strokeWidth=1;fontFamily=Verdana;fontSize=8;align=center;" vertex="1" parent="77e6c97f196da883-5">
          <mxGeometry x="20" y="2950" width="100" height="90" as="geometry" />
        </mxCell>
        <mxCell id="nlr6UDlaJSdSzfd9d1N8-116" value="&lt;span style=&quot;font-size: 10px;&quot;&gt;接收空货架的空料箱完成信息，并且更新空货架的储位状态&lt;/span&gt;" style="rounded=1;whiteSpace=wrap;html=1;shadow=0;labelBackgroundColor=none;strokeWidth=1;fontFamily=Verdana;fontSize=8;align=center;" vertex="1" parent="77e6c97f196da883-5">
          <mxGeometry x="-125" y="3210" width="100" height="90" as="geometry" />
        </mxCell>
        <mxCell id="nlr6UDlaJSdSzfd9d1N8-117" value="&lt;span style=&quot;font-size: 10px;&quot;&gt;上报空料箱放置完成信息&lt;/span&gt;" style="rounded=1;whiteSpace=wrap;html=1;shadow=0;labelBackgroundColor=none;strokeWidth=1;fontFamily=Verdana;fontSize=8;align=center;" vertex="1" parent="77e6c97f196da883-5">
          <mxGeometry x="25" y="3210" width="100" height="90" as="geometry" />
        </mxCell>
        <mxCell id="nlr6UDlaJSdSzfd9d1N8-119" value="" style="endArrow=classic;html=1;rounded=0;exitX=0;exitY=0.5;exitDx=0;exitDy=0;entryX=1;entryY=0.5;entryDx=0;entryDy=0;" edge="1" parent="77e6c97f196da883-5" source="nlr6UDlaJSdSzfd9d1N8-117" target="nlr6UDlaJSdSzfd9d1N8-116">
          <mxGeometry width="50" height="50" relative="1" as="geometry">
            <mxPoint x="50" y="3160" as="sourcePoint" />
            <mxPoint x="100" y="3110" as="targetPoint" />
          </mxGeometry>
        </mxCell>
        <mxCell id="77e6c97f196da883-6" value="AGV(CTU和潜伏)" style="swimlane;html=1;startSize=20;" parent="77e6c97f196da883-1" vertex="1">
          <mxGeometry x="640" y="20" width="160" height="3360" as="geometry" />
        </mxCell>
        <mxCell id="nlr6UDlaJSdSzfd9d1N8-33" value="&lt;span style=&quot;font-size: 10px;&quot;&gt;CTU行驶至货架区开始取货&lt;/span&gt;" style="rounded=1;whiteSpace=wrap;html=1;shadow=0;labelBackgroundColor=none;strokeWidth=1;fontFamily=Verdana;fontSize=8;align=center;" vertex="1" parent="77e6c97f196da883-6">
          <mxGeometry x="30" y="940" width="100" height="90" as="geometry" />
        </mxCell>
        <mxCell id="nlr6UDlaJSdSzfd9d1N8-35" value="&lt;span style=&quot;font-size: 10px;&quot;&gt;CTU取完第一个料箱，上报取货完成信息&lt;/span&gt;" style="rounded=1;whiteSpace=wrap;html=1;shadow=0;labelBackgroundColor=none;strokeWidth=1;fontFamily=Verdana;fontSize=8;align=center;" vertex="1" parent="77e6c97f196da883-6">
          <mxGeometry x="30" y="1060" width="100" height="90" as="geometry" />
        </mxCell>
        <mxCell id="nlr6UDlaJSdSzfd9d1N8-36" value="" style="endArrow=classic;html=1;rounded=0;exitX=0.5;exitY=1;exitDx=0;exitDy=0;" edge="1" parent="77e6c97f196da883-6" source="nlr6UDlaJSdSzfd9d1N8-33" target="nlr6UDlaJSdSzfd9d1N8-35">
          <mxGeometry width="50" height="50" relative="1" as="geometry">
            <mxPoint x="210" y="1050" as="sourcePoint" />
            <mxPoint x="260" y="1000" as="targetPoint" />
          </mxGeometry>
        </mxCell>
        <mxCell id="nlr6UDlaJSdSzfd9d1N8-41" value="&lt;span style=&quot;font-size: 10px;&quot;&gt;CTU取完第二个料箱，上报取货完成信息&lt;/span&gt;" style="rounded=1;whiteSpace=wrap;html=1;shadow=0;labelBackgroundColor=none;strokeWidth=1;fontFamily=Verdana;fontSize=8;align=center;" vertex="1" parent="77e6c97f196da883-6">
          <mxGeometry x="30" y="1190" width="100" height="90" as="geometry" />
        </mxCell>
        <mxCell id="nlr6UDlaJSdSzfd9d1N8-42" value="" style="endArrow=classic;html=1;rounded=0;exitX=0.5;exitY=1;exitDx=0;exitDy=0;" edge="1" parent="77e6c97f196da883-6" source="nlr6UDlaJSdSzfd9d1N8-35" target="nlr6UDlaJSdSzfd9d1N8-41">
          <mxGeometry width="50" height="50" relative="1" as="geometry">
            <mxPoint x="190" y="1150" as="sourcePoint" />
            <mxPoint x="240" y="1100" as="targetPoint" />
          </mxGeometry>
        </mxCell>
        <mxCell id="nlr6UDlaJSdSzfd9d1N8-44" value="&lt;span style=&quot;font-size: 10px;&quot;&gt;CTU行驶至空货架接驳区，并开始扫货架码&lt;/span&gt;" style="rounded=1;whiteSpace=wrap;html=1;shadow=0;labelBackgroundColor=none;strokeWidth=1;fontFamily=Verdana;fontSize=8;align=center;" vertex="1" parent="77e6c97f196da883-6">
          <mxGeometry x="30" y="1320" width="100" height="90" as="geometry" />
        </mxCell>
        <mxCell id="nlr6UDlaJSdSzfd9d1N8-45" value="" style="endArrow=classic;html=1;rounded=0;exitX=0.5;exitY=1;exitDx=0;exitDy=0;entryX=0.5;entryY=0;entryDx=0;entryDy=0;" edge="1" parent="77e6c97f196da883-6" source="nlr6UDlaJSdSzfd9d1N8-41" target="nlr6UDlaJSdSzfd9d1N8-44">
          <mxGeometry width="50" height="50" relative="1" as="geometry">
            <mxPoint x="210" y="1280" as="sourcePoint" />
            <mxPoint x="260" y="1230" as="targetPoint" />
          </mxGeometry>
        </mxCell>
        <mxCell id="nlr6UDlaJSdSzfd9d1N8-46" value="&lt;font style=&quot;font-size: 10px;&quot;&gt;货架码是否正确&lt;/font&gt;" style="rhombus;whiteSpace=wrap;html=1;rounded=0;shadow=0;labelBackgroundColor=none;strokeWidth=1;fontFamily=Verdana;fontSize=8;align=center;" vertex="1" parent="77e6c97f196da883-6">
          <mxGeometry x="40" y="1440" width="80" height="60" as="geometry" />
        </mxCell>
        <mxCell id="nlr6UDlaJSdSzfd9d1N8-47" value="" style="endArrow=classic;html=1;rounded=0;exitX=0.5;exitY=1;exitDx=0;exitDy=0;entryX=0.5;entryY=0;entryDx=0;entryDy=0;" edge="1" parent="77e6c97f196da883-6" source="nlr6UDlaJSdSzfd9d1N8-44" target="nlr6UDlaJSdSzfd9d1N8-46">
          <mxGeometry width="50" height="50" relative="1" as="geometry">
            <mxPoint x="240" y="1410" as="sourcePoint" />
            <mxPoint x="290" y="1360" as="targetPoint" />
          </mxGeometry>
        </mxCell>
        <mxCell id="nlr6UDlaJSdSzfd9d1N8-48" value="&lt;span style=&quot;font-size: 10px;&quot;&gt;CTU进行声光报警，并停止动作&lt;/span&gt;" style="rounded=1;whiteSpace=wrap;html=1;shadow=0;labelBackgroundColor=none;strokeWidth=1;fontFamily=Verdana;fontSize=8;align=center;" vertex="1" parent="77e6c97f196da883-6">
          <mxGeometry x="30" y="1530" width="100" height="90" as="geometry" />
        </mxCell>
        <mxCell id="nlr6UDlaJSdSzfd9d1N8-49" value="" style="endArrow=classic;html=1;rounded=0;exitX=0.5;exitY=1;exitDx=0;exitDy=0;entryX=0.5;entryY=0;entryDx=0;entryDy=0;" edge="1" parent="77e6c97f196da883-6" source="nlr6UDlaJSdSzfd9d1N8-46" target="nlr6UDlaJSdSzfd9d1N8-48">
          <mxGeometry width="50" height="50" relative="1" as="geometry">
            <mxPoint x="200" y="1490" as="sourcePoint" />
            <mxPoint x="250" y="1440" as="targetPoint" />
          </mxGeometry>
        </mxCell>
        <mxCell id="nlr6UDlaJSdSzfd9d1N8-50" value="不正确" style="edgeLabel;html=1;align=center;verticalAlign=middle;resizable=0;points=[];" vertex="1" connectable="0" parent="nlr6UDlaJSdSzfd9d1N8-49">
          <mxGeometry x="-0.1067" y="-1" relative="1" as="geometry">
            <mxPoint as="offset" />
          </mxGeometry>
        </mxCell>
        <mxCell id="nlr6UDlaJSdSzfd9d1N8-51" value="&lt;span style=&quot;font-size: 10px;&quot;&gt;CTU开始放料箱，上报放货完成信息&lt;/span&gt;" style="rounded=1;whiteSpace=wrap;html=1;shadow=0;labelBackgroundColor=none;strokeWidth=1;fontFamily=Verdana;fontSize=8;align=center;" vertex="1" parent="77e6c97f196da883-6">
          <mxGeometry x="30" y="1650" width="100" height="90" as="geometry" />
        </mxCell>
        <mxCell id="nlr6UDlaJSdSzfd9d1N8-52" value="" style="endArrow=classic;html=1;rounded=0;exitX=1;exitY=0.5;exitDx=0;exitDy=0;entryX=1;entryY=0.5;entryDx=0;entryDy=0;" edge="1" parent="77e6c97f196da883-6" source="nlr6UDlaJSdSzfd9d1N8-46" target="nlr6UDlaJSdSzfd9d1N8-51">
          <mxGeometry width="50" height="50" relative="1" as="geometry">
            <mxPoint x="210" y="1510" as="sourcePoint" />
            <mxPoint x="260" y="1460" as="targetPoint" />
            <Array as="points">
              <mxPoint x="150" y="1470" />
              <mxPoint x="150" y="1695" />
            </Array>
          </mxGeometry>
        </mxCell>
        <mxCell id="nlr6UDlaJSdSzfd9d1N8-53" value="正确" style="edgeLabel;html=1;align=center;verticalAlign=middle;resizable=0;points=[];" vertex="1" connectable="0" parent="nlr6UDlaJSdSzfd9d1N8-52">
          <mxGeometry x="-0.0953" y="-1" relative="1" as="geometry">
            <mxPoint as="offset" />
          </mxGeometry>
        </mxCell>
        <mxCell id="nlr6UDlaJSdSzfd9d1N8-58" value="&lt;span style=&quot;font-size: 10px;&quot;&gt;CTU料箱全部放完，就回到暂住区&lt;/span&gt;" style="rounded=1;whiteSpace=wrap;html=1;shadow=0;labelBackgroundColor=none;strokeWidth=1;fontFamily=Verdana;fontSize=8;align=center;" vertex="1" parent="77e6c97f196da883-6">
          <mxGeometry x="30" y="1780" width="100" height="90" as="geometry" />
        </mxCell>
        <mxCell id="nlr6UDlaJSdSzfd9d1N8-59" value="" style="endArrow=classic;html=1;rounded=0;exitX=0.5;exitY=1;exitDx=0;exitDy=0;entryX=0.5;entryY=0;entryDx=0;entryDy=0;" edge="1" parent="77e6c97f196da883-6" source="nlr6UDlaJSdSzfd9d1N8-51" target="nlr6UDlaJSdSzfd9d1N8-58">
          <mxGeometry width="50" height="50" relative="1" as="geometry">
            <mxPoint x="210" y="1760" as="sourcePoint" />
            <mxPoint x="260" y="1710" as="targetPoint" />
          </mxGeometry>
        </mxCell>
        <mxCell id="nlr6UDlaJSdSzfd9d1N8-71" value="&lt;span style=&quot;font-size: 10px;&quot;&gt;AGV行驶至货架接驳区开始搬运货架&lt;/span&gt;" style="rounded=1;whiteSpace=wrap;html=1;shadow=0;labelBackgroundColor=none;strokeWidth=1;fontFamily=Verdana;fontSize=8;align=center;" vertex="1" parent="77e6c97f196da883-6">
          <mxGeometry x="30" y="2000" width="100" height="90" as="geometry" />
        </mxCell>
        <mxCell id="nlr6UDlaJSdSzfd9d1N8-73" value="&lt;span style=&quot;font-size: 10px;&quot;&gt;AGV搬运货架到达线边缓冲区，并上报任务完成信息&lt;/span&gt;" style="rounded=1;whiteSpace=wrap;html=1;shadow=0;labelBackgroundColor=none;strokeWidth=1;fontFamily=Verdana;fontSize=8;align=center;" vertex="1" parent="77e6c97f196da883-6">
          <mxGeometry x="30" y="2130" width="100" height="90" as="geometry" />
        </mxCell>
        <mxCell id="nlr6UDlaJSdSzfd9d1N8-74" value="" style="endArrow=classic;html=1;rounded=0;exitX=0.5;exitY=1;exitDx=0;exitDy=0;entryX=0.5;entryY=0;entryDx=0;entryDy=0;" edge="1" parent="77e6c97f196da883-6" source="nlr6UDlaJSdSzfd9d1N8-71" target="nlr6UDlaJSdSzfd9d1N8-73">
          <mxGeometry width="50" height="50" relative="1" as="geometry">
            <mxPoint x="190" y="2080" as="sourcePoint" />
            <mxPoint x="240" y="2030" as="targetPoint" />
          </mxGeometry>
        </mxCell>
        <mxCell id="nlr6UDlaJSdSzfd9d1N8-85" value="&lt;span style=&quot;font-size: 10px;&quot;&gt;AGV行驶至空货架边，进行空货架搬运&lt;/span&gt;" style="rounded=1;whiteSpace=wrap;html=1;shadow=0;labelBackgroundColor=none;strokeWidth=1;fontFamily=Verdana;fontSize=8;align=center;" vertex="1" parent="77e6c97f196da883-6">
          <mxGeometry x="30" y="2375" width="100" height="90" as="geometry" />
        </mxCell>
        <mxCell id="nlr6UDlaJSdSzfd9d1N8-88" value="&lt;span style=&quot;font-size: 10px;&quot;&gt;AGV搬运空货架行驶至空货架接驳区，并上报任务完成信息&lt;/span&gt;" style="rounded=1;whiteSpace=wrap;html=1;shadow=0;labelBackgroundColor=none;strokeWidth=1;fontFamily=Verdana;fontSize=8;align=center;" vertex="1" parent="77e6c97f196da883-6">
          <mxGeometry x="30" y="2500" width="100" height="90" as="geometry" />
        </mxCell>
        <mxCell id="nlr6UDlaJSdSzfd9d1N8-89" value="" style="endArrow=classic;html=1;rounded=0;exitX=0.5;exitY=1;exitDx=0;exitDy=0;" edge="1" parent="77e6c97f196da883-6" source="nlr6UDlaJSdSzfd9d1N8-85" target="nlr6UDlaJSdSzfd9d1N8-88">
          <mxGeometry width="50" height="50" relative="1" as="geometry">
            <mxPoint x="190" y="2440" as="sourcePoint" />
            <mxPoint x="240" y="2390" as="targetPoint" />
          </mxGeometry>
        </mxCell>
        <mxCell id="nlr6UDlaJSdSzfd9d1N8-98" value="&lt;span style=&quot;font-size: 10px;&quot;&gt;CTU行驶至货架&lt;/span&gt;&lt;span style=&quot;font-size: 10px;&quot;&gt;接驳&lt;/span&gt;&lt;span style=&quot;font-size: 10px;&quot;&gt;区开始取空料箱&lt;/span&gt;" style="rounded=1;whiteSpace=wrap;html=1;shadow=0;labelBackgroundColor=none;strokeWidth=1;fontFamily=Verdana;fontSize=8;align=center;" vertex="1" parent="77e6c97f196da883-6">
          <mxGeometry x="30" y="2630" width="100" height="90" as="geometry" />
        </mxCell>
        <mxCell id="nlr6UDlaJSdSzfd9d1N8-100" value="&lt;span style=&quot;font-size: 10px;&quot;&gt;CTU每取完一个空料箱，就上报完成信息&lt;/span&gt;" style="rounded=1;whiteSpace=wrap;html=1;shadow=0;labelBackgroundColor=none;strokeWidth=1;fontFamily=Verdana;fontSize=8;align=center;" vertex="1" parent="77e6c97f196da883-6">
          <mxGeometry x="30" y="2950" width="100" height="90" as="geometry" />
        </mxCell>
        <mxCell id="nlr6UDlaJSdSzfd9d1N8-102" value="&lt;font style=&quot;font-size: 10px;&quot;&gt;是否有货架码&lt;/font&gt;" style="rhombus;whiteSpace=wrap;html=1;rounded=0;shadow=0;labelBackgroundColor=none;strokeWidth=1;fontFamily=Verdana;fontSize=8;align=center;" vertex="1" parent="77e6c97f196da883-6">
          <mxGeometry x="40" y="2760" width="80" height="60" as="geometry" />
        </mxCell>
        <mxCell id="nlr6UDlaJSdSzfd9d1N8-103" value="&lt;span style=&quot;font-size: 10px;&quot;&gt;CTU进行声光报警，并停止动作&lt;/span&gt;" style="rounded=1;whiteSpace=wrap;html=1;shadow=0;labelBackgroundColor=none;strokeWidth=1;fontFamily=Verdana;fontSize=8;align=center;" vertex="1" parent="77e6c97f196da883-6">
          <mxGeometry x="30" y="2850" width="100" height="90" as="geometry" />
        </mxCell>
        <mxCell id="nlr6UDlaJSdSzfd9d1N8-104" value="" style="endArrow=classic;html=1;rounded=0;exitX=0.5;exitY=1;exitDx=0;exitDy=0;" edge="1" parent="77e6c97f196da883-6" source="nlr6UDlaJSdSzfd9d1N8-102" target="nlr6UDlaJSdSzfd9d1N8-103">
          <mxGeometry width="50" height="50" relative="1" as="geometry">
            <mxPoint x="210" y="2800" as="sourcePoint" />
            <mxPoint x="260" y="2750" as="targetPoint" />
          </mxGeometry>
        </mxCell>
        <mxCell id="nlr6UDlaJSdSzfd9d1N8-106" value="没有" style="edgeLabel;html=1;align=center;verticalAlign=middle;resizable=0;points=[];" vertex="1" connectable="0" parent="nlr6UDlaJSdSzfd9d1N8-104">
          <mxGeometry x="-0.44" y="-1" relative="1" as="geometry">
            <mxPoint as="offset" />
          </mxGeometry>
        </mxCell>
        <mxCell id="nlr6UDlaJSdSzfd9d1N8-105" value="" style="endArrow=classic;html=1;rounded=0;exitX=1;exitY=0.5;exitDx=0;exitDy=0;entryX=1;entryY=0.5;entryDx=0;entryDy=0;" edge="1" parent="77e6c97f196da883-6" source="nlr6UDlaJSdSzfd9d1N8-102" target="nlr6UDlaJSdSzfd9d1N8-100">
          <mxGeometry width="50" height="50" relative="1" as="geometry">
            <mxPoint x="200" y="2780" as="sourcePoint" />
            <mxPoint x="250" y="2730" as="targetPoint" />
            <Array as="points">
              <mxPoint x="150" y="2790" />
              <mxPoint x="150" y="2995" />
            </Array>
          </mxGeometry>
        </mxCell>
        <mxCell id="nlr6UDlaJSdSzfd9d1N8-107" value="有" style="edgeLabel;html=1;align=center;verticalAlign=middle;resizable=0;points=[];" vertex="1" connectable="0" parent="nlr6UDlaJSdSzfd9d1N8-105">
          <mxGeometry x="-0.6439" y="-1" relative="1" as="geometry">
            <mxPoint as="offset" />
          </mxGeometry>
        </mxCell>
        <mxCell id="nlr6UDlaJSdSzfd9d1N8-112" value="&lt;span style=&quot;font-size: 10px;&quot;&gt;CTU行驶至空料箱货架，并开始放置空料箱&lt;/span&gt;" style="rounded=1;whiteSpace=wrap;html=1;shadow=0;labelBackgroundColor=none;strokeWidth=1;fontFamily=Verdana;fontSize=8;align=center;" vertex="1" parent="77e6c97f196da883-6">
          <mxGeometry x="30" y="3080" width="100" height="90" as="geometry" />
        </mxCell>
        <mxCell id="nlr6UDlaJSdSzfd9d1N8-113" value="" style="endArrow=classic;html=1;rounded=0;exitX=0.5;exitY=1;exitDx=0;exitDy=0;entryX=0.5;entryY=0;entryDx=0;entryDy=0;" edge="1" parent="77e6c97f196da883-6" source="nlr6UDlaJSdSzfd9d1N8-100" target="nlr6UDlaJSdSzfd9d1N8-112">
          <mxGeometry width="50" height="50" relative="1" as="geometry">
            <mxPoint x="230" y="3040" as="sourcePoint" />
            <mxPoint x="280" y="2990" as="targetPoint" />
          </mxGeometry>
        </mxCell>
        <mxCell id="nlr6UDlaJSdSzfd9d1N8-114" value="&lt;span style=&quot;font-size: 10px;&quot;&gt;CTU每放置完一个空料箱，就上报完成信息&lt;/span&gt;" style="rounded=1;whiteSpace=wrap;html=1;shadow=0;labelBackgroundColor=none;strokeWidth=1;fontFamily=Verdana;fontSize=8;align=center;" vertex="1" parent="77e6c97f196da883-6">
          <mxGeometry x="30" y="3210" width="100" height="90" as="geometry" />
        </mxCell>
        <mxCell id="nlr6UDlaJSdSzfd9d1N8-115" value="" style="endArrow=classic;html=1;rounded=0;exitX=0.5;exitY=1;exitDx=0;exitDy=0;" edge="1" parent="77e6c97f196da883-6" source="nlr6UDlaJSdSzfd9d1N8-112" target="nlr6UDlaJSdSzfd9d1N8-114">
          <mxGeometry width="50" height="50" relative="1" as="geometry">
            <mxPoint x="200" y="3200" as="sourcePoint" />
            <mxPoint x="250" y="3150" as="targetPoint" />
          </mxGeometry>
        </mxCell>
        <mxCell id="77e6c97f196da883-7" value="Lane 6" style="swimlane;html=1;startSize=20;" parent="77e6c97f196da883-1" vertex="1">
          <mxGeometry x="800" y="20" width="160" height="3360" as="geometry" />
        </mxCell>
        <mxCell id="nlr6UDlaJSdSzfd9d1N8-101" value="" style="endArrow=classic;html=1;rounded=0;exitX=0.5;exitY=1;exitDx=0;exitDy=0;" edge="1" parent="77e6c97f196da883-7" source="nlr6UDlaJSdSzfd9d1N8-98">
          <mxGeometry width="50" height="50" relative="1" as="geometry">
            <mxPoint x="50" y="2690" as="sourcePoint" />
            <mxPoint x="-80" y="2760" as="targetPoint" />
          </mxGeometry>
        </mxCell>
        <mxCell id="nlr6UDlaJSdSzfd9d1N8-2" value="" style="endArrow=classic;html=1;rounded=0;exitX=1;exitY=0.5;exitDx=0;exitDy=0;entryX=0;entryY=0.5;entryDx=0;entryDy=0;" edge="1" parent="77e6c97f196da883-1" source="77e6c97f196da883-11" target="77e6c97f196da883-12">
          <mxGeometry width="50" height="50" relative="1" as="geometry">
            <mxPoint x="390" y="320" as="sourcePoint" />
            <mxPoint x="440" y="270" as="targetPoint" />
          </mxGeometry>
        </mxCell>
        <mxCell id="nlr6UDlaJSdSzfd9d1N8-16" value="" style="endArrow=classic;html=1;rounded=0;exitX=0;exitY=0.5;exitDx=0;exitDy=0;entryX=1;entryY=0.5;entryDx=0;entryDy=0;" edge="1" parent="77e6c97f196da883-1" source="nlr6UDlaJSdSzfd9d1N8-13" target="nlr6UDlaJSdSzfd9d1N8-15">
          <mxGeometry width="50" height="50" relative="1" as="geometry">
            <mxPoint x="510" y="580" as="sourcePoint" />
            <mxPoint x="560" y="530" as="targetPoint" />
          </mxGeometry>
        </mxCell>
        <mxCell id="nlr6UDlaJSdSzfd9d1N8-17" value="不够" style="edgeLabel;html=1;align=center;verticalAlign=middle;resizable=0;points=[];" vertex="1" connectable="0" parent="nlr6UDlaJSdSzfd9d1N8-16">
          <mxGeometry x="0.16" y="1" relative="1" as="geometry">
            <mxPoint as="offset" />
          </mxGeometry>
        </mxCell>
        <mxCell id="nlr6UDlaJSdSzfd9d1N8-22" value="" style="endArrow=classic;html=1;rounded=0;exitX=0;exitY=0.5;exitDx=0;exitDy=0;entryX=0.5;entryY=1;entryDx=0;entryDy=0;" edge="1" parent="77e6c97f196da883-1" source="nlr6UDlaJSdSzfd9d1N8-21" target="nlr6UDlaJSdSzfd9d1N8-15">
          <mxGeometry width="50" height="50" relative="1" as="geometry">
            <mxPoint x="520" y="770" as="sourcePoint" />
            <mxPoint x="280" y="770" as="targetPoint" />
            <Array as="points">
              <mxPoint x="240" y="770" />
            </Array>
          </mxGeometry>
        </mxCell>
        <mxCell id="nlr6UDlaJSdSzfd9d1N8-23" value="没有" style="edgeLabel;html=1;align=center;verticalAlign=middle;resizable=0;points=[];" vertex="1" connectable="0" parent="nlr6UDlaJSdSzfd9d1N8-22">
          <mxGeometry x="-0.2579" y="2" relative="1" as="geometry">
            <mxPoint as="offset" />
          </mxGeometry>
        </mxCell>
        <mxCell id="nlr6UDlaJSdSzfd9d1N8-32" value="" style="endArrow=classic;html=1;rounded=0;exitX=1;exitY=0.5;exitDx=0;exitDy=0;" edge="1" parent="77e6c97f196da883-1" source="nlr6UDlaJSdSzfd9d1N8-31" target="nlr6UDlaJSdSzfd9d1N8-28">
          <mxGeometry width="50" height="50" relative="1" as="geometry">
            <mxPoint x="570" y="920" as="sourcePoint" />
            <mxPoint x="620" y="870" as="targetPoint" />
          </mxGeometry>
        </mxCell>
        <mxCell id="nlr6UDlaJSdSzfd9d1N8-34" value="" style="endArrow=classic;html=1;rounded=0;exitX=1;exitY=0.5;exitDx=0;exitDy=0;entryX=0;entryY=0.5;entryDx=0;entryDy=0;" edge="1" parent="77e6c97f196da883-1" source="nlr6UDlaJSdSzfd9d1N8-28" target="nlr6UDlaJSdSzfd9d1N8-33">
          <mxGeometry width="50" height="50" relative="1" as="geometry">
            <mxPoint x="700" y="920" as="sourcePoint" />
            <mxPoint x="750" y="870" as="targetPoint" />
          </mxGeometry>
        </mxCell>
        <mxCell id="nlr6UDlaJSdSzfd9d1N8-38" value="" style="endArrow=classic;html=1;rounded=0;exitX=0;exitY=0.5;exitDx=0;exitDy=0;entryX=1;entryY=0.5;entryDx=0;entryDy=0;" edge="1" parent="77e6c97f196da883-1" source="nlr6UDlaJSdSzfd9d1N8-35" target="nlr6UDlaJSdSzfd9d1N8-37">
          <mxGeometry width="50" height="50" relative="1" as="geometry">
            <mxPoint x="850" y="1130" as="sourcePoint" />
            <mxPoint x="900" y="1080" as="targetPoint" />
          </mxGeometry>
        </mxCell>
        <mxCell id="nlr6UDlaJSdSzfd9d1N8-40" value="" style="endArrow=classic;html=1;rounded=0;exitX=0;exitY=0.5;exitDx=0;exitDy=0;entryX=1;entryY=0.5;entryDx=0;entryDy=0;" edge="1" parent="77e6c97f196da883-1" source="nlr6UDlaJSdSzfd9d1N8-37" target="nlr6UDlaJSdSzfd9d1N8-39">
          <mxGeometry width="50" height="50" relative="1" as="geometry">
            <mxPoint x="570" y="1230" as="sourcePoint" />
            <mxPoint x="620" y="1180" as="targetPoint" />
          </mxGeometry>
        </mxCell>
        <mxCell id="nlr6UDlaJSdSzfd9d1N8-43" value="" style="endArrow=classic;html=1;rounded=0;exitX=0;exitY=0.5;exitDx=0;exitDy=0;entryX=0.5;entryY=1;entryDx=0;entryDy=0;" edge="1" parent="77e6c97f196da883-1" source="nlr6UDlaJSdSzfd9d1N8-41" target="nlr6UDlaJSdSzfd9d1N8-37">
          <mxGeometry width="50" height="50" relative="1" as="geometry">
            <mxPoint x="880" y="1230" as="sourcePoint" />
            <mxPoint x="930" y="1180" as="targetPoint" />
            <Array as="points">
              <mxPoint x="560" y="1255" />
            </Array>
          </mxGeometry>
        </mxCell>
        <mxCell id="nlr6UDlaJSdSzfd9d1N8-56" value="" style="endArrow=classic;html=1;rounded=0;exitX=0;exitY=0.5;exitDx=0;exitDy=0;entryX=1;entryY=0.5;entryDx=0;entryDy=0;" edge="1" parent="77e6c97f196da883-1" source="nlr6UDlaJSdSzfd9d1N8-51" target="nlr6UDlaJSdSzfd9d1N8-54">
          <mxGeometry width="50" height="50" relative="1" as="geometry">
            <mxPoint x="690" y="1830" as="sourcePoint" />
            <mxPoint x="740" y="1780" as="targetPoint" />
          </mxGeometry>
        </mxCell>
        <mxCell id="nlr6UDlaJSdSzfd9d1N8-57" value="" style="endArrow=classic;html=1;rounded=0;exitX=0;exitY=0.5;exitDx=0;exitDy=0;" edge="1" parent="77e6c97f196da883-1" source="nlr6UDlaJSdSzfd9d1N8-54" target="nlr6UDlaJSdSzfd9d1N8-55">
          <mxGeometry width="50" height="50" relative="1" as="geometry">
            <mxPoint x="540" y="1840" as="sourcePoint" />
            <mxPoint x="590" y="1790" as="targetPoint" />
          </mxGeometry>
        </mxCell>
        <mxCell id="nlr6UDlaJSdSzfd9d1N8-70" value="" style="endArrow=classic;html=1;rounded=0;exitX=1;exitY=0.5;exitDx=0;exitDy=0;" edge="1" parent="77e6c97f196da883-1" source="nlr6UDlaJSdSzfd9d1N8-66" target="nlr6UDlaJSdSzfd9d1N8-69">
          <mxGeometry width="50" height="50" relative="1" as="geometry">
            <mxPoint x="530" y="2000" as="sourcePoint" />
            <mxPoint x="580" y="1950" as="targetPoint" />
          </mxGeometry>
        </mxCell>
        <mxCell id="nlr6UDlaJSdSzfd9d1N8-72" value="" style="endArrow=classic;html=1;rounded=0;exitX=1;exitY=0.5;exitDx=0;exitDy=0;entryX=0;entryY=0.5;entryDx=0;entryDy=0;" edge="1" parent="77e6c97f196da883-1" source="nlr6UDlaJSdSzfd9d1N8-69" target="nlr6UDlaJSdSzfd9d1N8-71">
          <mxGeometry width="50" height="50" relative="1" as="geometry">
            <mxPoint x="700" y="1980" as="sourcePoint" />
            <mxPoint x="750" y="1930" as="targetPoint" />
          </mxGeometry>
        </mxCell>
        <mxCell id="nlr6UDlaJSdSzfd9d1N8-78" value="" style="endArrow=classic;html=1;rounded=0;exitX=0;exitY=0.5;exitDx=0;exitDy=0;" edge="1" parent="77e6c97f196da883-1" source="nlr6UDlaJSdSzfd9d1N8-73" target="nlr6UDlaJSdSzfd9d1N8-77">
          <mxGeometry width="50" height="50" relative="1" as="geometry">
            <mxPoint x="860" y="2190" as="sourcePoint" />
            <mxPoint x="910" y="2140" as="targetPoint" />
          </mxGeometry>
        </mxCell>
        <mxCell id="nlr6UDlaJSdSzfd9d1N8-80" value="" style="endArrow=classic;html=1;rounded=0;exitX=0;exitY=0.5;exitDx=0;exitDy=0;" edge="1" parent="77e6c97f196da883-1" source="nlr6UDlaJSdSzfd9d1N8-77" target="nlr6UDlaJSdSzfd9d1N8-79">
          <mxGeometry width="50" height="50" relative="1" as="geometry">
            <mxPoint x="570" y="2280" as="sourcePoint" />
            <mxPoint x="620" y="2230" as="targetPoint" />
          </mxGeometry>
        </mxCell>
        <mxCell id="nlr6UDlaJSdSzfd9d1N8-86" value="" style="endArrow=classic;html=1;rounded=0;exitX=1;exitY=0.5;exitDx=0;exitDy=0;entryX=0;entryY=0.5;entryDx=0;entryDy=0;" edge="1" parent="77e6c97f196da883-1" source="nlr6UDlaJSdSzfd9d1N8-83" target="nlr6UDlaJSdSzfd9d1N8-85">
          <mxGeometry width="50" height="50" relative="1" as="geometry">
            <mxPoint x="680" y="2360" as="sourcePoint" />
            <mxPoint x="730" y="2310" as="targetPoint" />
          </mxGeometry>
        </mxCell>
        <mxCell id="nlr6UDlaJSdSzfd9d1N8-87" value="有" style="edgeLabel;html=1;align=center;verticalAlign=middle;resizable=0;points=[];" vertex="1" connectable="0" parent="nlr6UDlaJSdSzfd9d1N8-86">
          <mxGeometry x="-0.19" y="1" relative="1" as="geometry">
            <mxPoint as="offset" />
          </mxGeometry>
        </mxCell>
        <mxCell id="nlr6UDlaJSdSzfd9d1N8-91" value="" style="endArrow=classic;html=1;rounded=0;exitX=0;exitY=0.5;exitDx=0;exitDy=0;entryX=1;entryY=0.5;entryDx=0;entryDy=0;" edge="1" parent="77e6c97f196da883-1" source="nlr6UDlaJSdSzfd9d1N8-88" target="nlr6UDlaJSdSzfd9d1N8-90">
          <mxGeometry width="50" height="50" relative="1" as="geometry">
            <mxPoint x="830" y="2520" as="sourcePoint" />
            <mxPoint x="880" y="2470" as="targetPoint" />
          </mxGeometry>
        </mxCell>
        <mxCell id="nlr6UDlaJSdSzfd9d1N8-93" value="" style="endArrow=classic;html=1;rounded=0;exitX=0;exitY=0.5;exitDx=0;exitDy=0;entryX=1;entryY=0.5;entryDx=0;entryDy=0;" edge="1" parent="77e6c97f196da883-1" source="nlr6UDlaJSdSzfd9d1N8-90" target="nlr6UDlaJSdSzfd9d1N8-92">
          <mxGeometry width="50" height="50" relative="1" as="geometry">
            <mxPoint x="530" y="2520" as="sourcePoint" />
            <mxPoint x="580" y="2470" as="targetPoint" />
          </mxGeometry>
        </mxCell>
        <mxCell id="nlr6UDlaJSdSzfd9d1N8-97" value="" style="endArrow=classic;html=1;rounded=0;exitX=1;exitY=0.5;exitDx=0;exitDy=0;entryX=0;entryY=0.5;entryDx=0;entryDy=0;" edge="1" parent="77e6c97f196da883-1" source="nlr6UDlaJSdSzfd9d1N8-94" target="nlr6UDlaJSdSzfd9d1N8-96">
          <mxGeometry width="50" height="50" relative="1" as="geometry">
            <mxPoint x="700" y="2700" as="sourcePoint" />
            <mxPoint x="750" y="2650" as="targetPoint" />
          </mxGeometry>
        </mxCell>
        <mxCell id="nlr6UDlaJSdSzfd9d1N8-99" value="" style="endArrow=classic;html=1;rounded=0;exitX=1;exitY=0.5;exitDx=0;exitDy=0;entryX=0;entryY=0.5;entryDx=0;entryDy=0;" edge="1" parent="77e6c97f196da883-1" source="nlr6UDlaJSdSzfd9d1N8-96" target="nlr6UDlaJSdSzfd9d1N8-98">
          <mxGeometry width="50" height="50" relative="1" as="geometry">
            <mxPoint x="720" y="2800" as="sourcePoint" />
            <mxPoint x="770" y="2750" as="targetPoint" />
          </mxGeometry>
        </mxCell>
        <mxCell id="nlr6UDlaJSdSzfd9d1N8-109" value="" style="endArrow=classic;html=1;rounded=0;exitX=0;exitY=0.5;exitDx=0;exitDy=0;entryX=1;entryY=0.5;entryDx=0;entryDy=0;" edge="1" parent="77e6c97f196da883-1" source="nlr6UDlaJSdSzfd9d1N8-100" target="nlr6UDlaJSdSzfd9d1N8-108">
          <mxGeometry width="50" height="50" relative="1" as="geometry">
            <mxPoint x="840" y="2970" as="sourcePoint" />
            <mxPoint x="890" y="2920" as="targetPoint" />
          </mxGeometry>
        </mxCell>
        <mxCell id="nlr6UDlaJSdSzfd9d1N8-111" value="" style="endArrow=classic;html=1;rounded=0;exitX=0;exitY=0.5;exitDx=0;exitDy=0;entryX=1;entryY=0.5;entryDx=0;entryDy=0;" edge="1" parent="77e6c97f196da883-1" source="nlr6UDlaJSdSzfd9d1N8-108" target="nlr6UDlaJSdSzfd9d1N8-110">
          <mxGeometry width="50" height="50" relative="1" as="geometry">
            <mxPoint x="560" y="3170" as="sourcePoint" />
            <mxPoint x="610" y="3120" as="targetPoint" />
          </mxGeometry>
        </mxCell>
        <mxCell id="nlr6UDlaJSdSzfd9d1N8-118" value="" style="endArrow=classic;html=1;rounded=0;exitX=0;exitY=0.5;exitDx=0;exitDy=0;entryX=1;entryY=0.5;entryDx=0;entryDy=0;" edge="1" parent="77e6c97f196da883-1" source="nlr6UDlaJSdSzfd9d1N8-114" target="nlr6UDlaJSdSzfd9d1N8-117">
          <mxGeometry width="50" height="50" relative="1" as="geometry">
            <mxPoint x="810" y="3220" as="sourcePoint" />
            <mxPoint x="860" y="3170" as="targetPoint" />
          </mxGeometry>
        </mxCell>
      </root>
    </mxGraphModel>
  </diagram>
</mxfile>
